<?xml version="1.0" encoding="iso-8859-1"?>
<!-- Generator: Adobe Illustrator 19.0.0, SVG Export Plug-In . SVG Version: 6.00 Build 0)  -->
<svg version="1.1" id="Capa_1" xmlns="http://www.w3.org/2000/svg" xmlns:xlink="http://www.w3.org/1999/xlink" x="0px" y="0px"
	 viewBox="0 0 480.019 480.019" style="enable-background:new 0 0 480.019 480.019;" xml:space="preserve">
<circle style="fill:#B3E4E8;" cx="240.01" cy="276.005" r="152"/>
<g>
	<path style="fill:#6FBBC6;" d="M188.01,238.005l48-7v92l-48-7V238.005z"/>
	<path style="fill:#6FBBC6;" d="M240.018,183.005h44.456l9.536,48h-46L240.018,183.005z"/>
	<path style="fill:#6FBBC6;" d="M149.21,354.493l46.336,17.512l14.2,55.816l-41.736-15.816l-23.728-13.936L149.21,354.493z"/>
	<path style="fill:#6FBBC6;" d="M140.506,207.005c0,1.496-9.496,48.504-9.496,48.504l-43-3.504l13.176-37.968L140.506,207.005z"/>
	<path style="fill:#6FBBC6;" d="M291.506,319.509l54-11.888l-8.496,50.888l-52.536,9.496L291.506,319.509z"/>
	<path style="fill:#6FBBC6;" d="M351.01,250.509v59l39.72-13.792l-0.104-40.208L351.01,250.509z"/>
	<path style="fill:#6FBBC6;" d="M209.745,132.005l-16.736,62c0,0-43-2.496-44.504,0s5.368-43.248,5.368-43.248L209.745,132.005z"/>
</g>
<g>
	<path style="fill:#F790B0;" d="M284.474,183.005l9.536,48l43.6,13v-46.8L284.474,183.005z"/>
	<path style="fill:#F790B0;" d="M188.01,316.005l48,7v45l-40.464-11.016L188.01,316.005z"/>
	<path style="fill:#F790B0;" d="M193.01,194.005l-5,44l-57,17.504l9.496-48.504L193.01,194.005z"/>
	<path style="fill:#F790B0;" d="M351.01,309.509l-14,49l38.392-13.448l15.328-40.72L351.01,309.509z"/>
	<path style="fill:#F790B0;" d="M112.01,341.861l28.496,12.936l3.776,43.272l-34.464-43.576L112.01,341.861z"/>
	<path style="fill:#F790B0;" d="M240.01,124.005l0.008,59h44.456l-9.704-54.96L240.01,124.005z"/>
	<path style="fill:#F790B0;" d="M131.01,255.509l-3.96,41.496l-38.448-7.928l-0.592-37.072L131.01,255.509z"/>
	<path style="fill:#F790B0;" d="M236.01,368.005h48.464l-17.464,60h-27L236.01,368.005z"/>
	<path style="fill:#F790B0;" d="M152.234,161.949l-3.728,32.056l-47.32,20.032l25.864-39.728L152.234,161.949z"/>
</g>
<g>
	<path style="fill:none;stroke:#8ACED8;stroke-width:2;stroke-linecap:round;stroke-linejoin:round;" d="M240.01,20.005v40"/>
	<path style="fill:none;stroke:#8ACED8;stroke-width:2;stroke-linecap:round;stroke-linejoin:round;" d="M184.01,12.005h112"/>
</g>
<path style="fill:#6FBBC6;" d="M216.01,84.005h48v40h-48V84.005z"/>
<path style="fill:#3B869E;" d="M224.01,60.005h32l8,24h-48L224.01,60.005z"/>
<g>
	<path style="fill:#F790B0;" d="M437.722,97.717l-13.712,34.288l-13.712-34.288L376.01,84.005l34.288-13.712l13.712-34.288
		l13.712,34.288l34.288,13.712L437.722,97.717z"/>
	<path style="fill:#F790B0;" d="M69.722,433.717L56.01,468.005l-13.712-34.288L8.01,420.005l34.288-13.712l13.712-34.288
		l13.712,34.288l34.288,13.712L69.722,433.717z"/>
</g>
<g>
	<path style="fill:none;stroke:#F790B0;stroke-width:2;stroke-linejoin:round;" d="M72.01,60.005v16"/>
	<path style="fill:none;stroke:#F790B0;stroke-width:2;stroke-linejoin:round;" d="M72.01,92.005v16"/>
	<path style="fill:none;stroke:#F790B0;stroke-width:2;stroke-linejoin:round;" d="M88.01,76.005v16"/>
	<path style="fill:none;stroke:#F790B0;stroke-width:2;stroke-linejoin:round;" d="M56.01,76.005v16"/>
	<path style="fill:none;stroke:#F790B0;stroke-width:2;stroke-linejoin:round;" d="M408.01,396.005v16"/>
	<path style="fill:none;stroke:#F790B0;stroke-width:2;stroke-linejoin:round;" d="M408.01,428.005v16"/>
	<path style="fill:none;stroke:#F790B0;stroke-width:2;stroke-linejoin:round;" d="M424.01,412.005v16"/>
	<path style="fill:none;stroke:#F790B0;stroke-width:2;stroke-linejoin:round;" d="M392.01,412.005v16"/>
</g>
<g>
	<path style="fill:#3B869E;" d="M240.01,436.005c-88.366,0-160-71.634-160-160s71.634-160,160-160s160,71.634,160,160
		C399.908,364.328,328.333,435.903,240.01,436.005z M240.01,132.005c-79.529,0-144,64.471-144,144s64.471,144,144,144
		s144-64.471,144-144C383.917,196.514,319.5,132.097,240.01,132.005z"/>
	<path style="fill:#3B869E;" d="M240.01,436.005c-4.418,0-8-3.582-8-8v-304c0-4.418,3.582-8,8-8s8,3.582,8,8v304
		C248.01,432.423,244.428,436.005,240.01,436.005z"/>
	<path style="fill:#3B869E;" d="M208.01,428.005c-3.749-0.001-6.994-2.604-7.808-6.264l-18.12-81.528
		c-9.328-42.297-9.328-86.119,0-128.416l18.112-81.528c0.959-4.317,5.235-7.039,9.552-6.08c4.317,0.959,7.039,5.235,6.08,9.552l0,0
		l-18.12,81.52c-8.832,40.014-8.832,81.474,0,121.488l18.12,81.52c0.961,4.312-1.755,8.588-6.067,9.549
		c-0.004,0.001-0.008,0.002-0.013,0.003C209.175,427.94,208.593,428.002,208.01,428.005L208.01,428.005z"/>
	<path style="fill:#3B869E;" d="M272.01,428.005c-0.586-0.002-1.17-0.064-1.744-0.184c-4.314-0.954-7.037-5.225-6.083-9.539
		c0.001-0.004,0.002-0.008,0.003-0.013l18.12-81.52c8.832-40.014,8.832-81.474,0-121.488l-18.12-81.52
		c-0.959-4.317,1.763-8.593,6.08-9.552c4.317-0.959,8.593,1.763,9.552,6.08l18.112,81.528c9.328,42.297,9.328,86.119,0,128.416
		l-18.104,81.528C279.011,425.403,275.761,428.008,272.01,428.005L272.01,428.005z"/>
	<path style="fill:#3B869E;" d="M328.01,404.005c-4.418,0.004-8.003-3.575-8.007-7.993c-0.001-0.699,0.09-1.395,0.271-2.071
		l10.528-39.448c13.656-51.155,12.511-105.135-3.304-155.664l-15.12-48.424c-1.325-4.215,1.017-8.707,5.232-10.032
		c4.215-1.325,8.707,1.017,10.032,5.232l15.136,48.44c16.724,53.414,17.931,110.479,3.48,164.552l-10.52,39.456
		C334.809,401.559,331.637,404.002,328.01,404.005L328.01,404.005z"/>
	<path style="fill:#3B869E;" d="M152.01,404.005c-3.62-0.004-6.786-2.439-7.72-5.936l-10.52-39.456
		c-14.451-54.073-13.244-111.138,3.48-164.552l15.128-48.456c1.325-4.215,5.817-6.557,10.032-5.232s6.557,5.817,5.232,10.032l0,0
		l-15.136,48.44c-15.808,50.53-16.951,104.51-3.296,155.664l10.528,39.448c1.131,4.271-1.414,8.65-5.685,9.781
		C153.386,403.915,152.699,404.004,152.01,404.005L152.01,404.005z"/>
	<path style="fill:#3B869E;" d="M96.01,268.005c-4.418,0.005-8.004-3.573-8.009-7.991c-0.004-3.602,2.4-6.763,5.873-7.721
		l74.68-20.744c46.794-12.954,96.05-14.239,143.456-3.744l73.768,16.384c4.317,0.959,7.039,5.235,6.08,9.552
		c-0.959,4.317-5.235,7.039-9.552,6.08l-73.768-16.392c-44.833-9.93-91.418-8.713-135.672,3.544l-74.68,20.744
		C97.476,267.908,96.744,268.005,96.01,268.005L96.01,268.005z"/>
	<path style="fill:#3B869E;" d="M247.818,331.205c-26.789,0.01-53.455-3.609-79.272-10.76l-74.68-20.744
		c-4.259-1.184-6.752-5.597-5.568-9.856c1.184-4.259,5.597-6.752,9.856-5.568l0,0l74.656,20.76
		c44.253,12.263,90.839,13.48,135.672,3.544l73.768-16.392c4.317-0.959,8.593,1.763,9.552,6.08c0.959,4.317-1.763,8.593-6.08,9.552
		l-73.712,16.384C290.931,328.871,269.406,331.218,247.818,331.205L247.818,331.205z"/>
	<path style="fill:#3B869E;" d="M104.01,220.005c-4.418-0.006-7.995-3.593-7.989-8.011c0.005-3.541,2.337-6.657,5.733-7.661
		l60.864-17.928c50.56-14.872,104.174-15.976,155.304-3.2l52,13.008c4.31,0.97,7.018,5.251,6.048,9.561s-5.251,7.018-9.561,6.048
		c-0.12-0.027-0.24-0.057-0.359-0.09l-52-13.008c-48.369-12.066-99.08-11.022-146.912,3.024l-60.872,17.896
		C105.535,219.873,104.775,219.994,104.01,220.005L104.01,220.005z"/>
	<path style="fill:#3B869E;" d="M246.17,377.605c-28.281,0.01-56.417-4.031-83.552-12l-60.864-17.896
		c-4.202-1.366-6.501-5.879-5.136-10.081c1.311-4.035,5.545-6.345,9.648-5.263l60.872,17.896
		c47.83,14.058,98.544,15.102,146.912,3.024l52-13.008c4.261-1.169,8.662,1.338,9.831,5.599c1.169,4.261-1.338,8.662-5.599,9.831
		c-0.119,0.033-0.239,0.063-0.36,0.09l-52,13.008C294.454,374.66,270.357,377.615,246.17,377.605L246.17,377.605z"/>
</g>
<path d="M272.01,119.205v-35.2c0-0.072-0.04-0.136-0.04-0.216c-0.01-0.785-0.136-1.564-0.376-2.312l-8-24
	c-1.088-3.266-4.142-5.469-7.584-5.472h-8v-32h48c4.418,0,8-3.582,8-8s-3.582-8-8-8h-112c-4.418,0-8,3.582-8,8s3.582,8,8,8h48v32h-8
	c-3.442,0.003-6.496,2.206-7.584,5.472l-8,24c-0.24,0.748-0.366,1.527-0.376,2.312v0.216v35.2
	c-86.58,17.673-142.44,102.187-124.767,188.767s102.187,142.44,188.767,124.767s142.44-102.187,124.767-188.767
	c-12.826-62.835-61.932-111.941-124.767-124.767H272.01z M357.61,193.133l-16.376-4.096l-6.704-21.44
	c8.68,7.574,16.428,16.155,23.08,25.56L357.61,193.133z M368.81,340.093c-0.897-0.109-1.806-0.066-2.688,0.128l-16.552,4.144
	c2.124-9.778,3.753-19.657,4.88-29.6l25.6-5.696c-2.545,10.752-6.333,21.172-11.288,31.048L368.81,340.093z M320.234,395.525
	c-11.888,7.997-24.907,14.167-38.624,18.304l8.8-39.688c9.232-1.4,18.4-3.096,27.52-5.368l9.72-2.4l-7.36,27.6
	c-0.088,0.52-0.123,1.048-0.104,1.576L320.234,395.525z M248.01,419.597v-42.056c8.52-0.048,17.04-0.56,25.536-1.352l-9.24,41.6
	C258.912,418.701,253.472,419.305,248.01,419.597L248.01,419.597z M215.714,417.789l-9.552-42.968
	c8.584,1.168,17.208,1.856,25.848,2.272v42.504C226.548,419.305,221.107,418.701,215.714,417.789z M159.714,393.941l-8.432-31.696
	l11.336,3.328c8.744,2.576,17.6,4.576,26.504,6.328l9.288,41.928c-13.71-4.131-26.724-10.293-38.608-18.28
	c0.034-0.537,0.013-1.076-0.064-1.608H159.714z M107.714,219.253l24.616-7.2c-2.488,10.289-4.421,20.704-5.792,31.2l-28.208,7.832
	c1.878-10.939,5.025-21.622,9.376-31.832H107.714z M198.41,138.181l-9.32,41.928c-8.904,1.744-17.76,3.752-26.504,6.328
	l-6.872,2.016l11.416-36.448C176.964,146.159,187.466,141.518,198.41,138.181L198.41,138.181z M312.89,152.005l10.152,32.488
	l-5.12-1.28c-9.088-2.272-18.288-3.952-27.52-5.344l-8.8-39.712C292.549,141.501,303.053,146.15,312.89,152.005L312.89,152.005z
	 M383.042,259.805c1.291,10.745,1.291,21.607,0,32.352c-0.264,0-0.504,0-0.8,0l-26.464,5.88c0.788-14.788,0.459-29.614-0.984-44.352
	l27.448,6.104c0.296,0.08,0.536,0.008,0.8,0.04V259.805z M339.458,301.685l-30.952,6.872c-1.816,0.408-3.664,0.68-5.496,1.048
	c2.528-22.345,2.528-44.903,0-67.248c1.832,0.368,3.68,0.64,5.496,1.048l29.736,6.6c2.002,17.16,2.409,34.469,1.216,51.704V301.685z
	 M277.178,359.853c-9.688,1.041-19.424,1.575-29.168,1.6v-30.248c11.971-0.035,23.928-0.791,35.808-2.264
	c-0.496,2.6-0.928,5.208-1.504,7.792L277.178,359.853z M197.706,336.725c-0.76-3.408-1.36-6.848-1.984-10.28
	c11.998,2.158,24.116,3.577,36.288,4.248v30.4c-9.896-0.46-19.761-1.446-29.552-2.952L197.706,336.725z M96.426,284.157
	c-0.152-2.696-0.416-5.392-0.416-8.152s0.256-5.376,0.408-8.056c0.585-0.015,1.167-0.093,1.736-0.232l26.544-7.376
	c-0.768,10.362-0.992,20.758-0.672,31.144l-25.872-7.2c-0.57-0.098-1.15-0.133-1.728-0.104L96.426,284.157z M141.05,255.781
	l31.784-8.8c1.256-0.352,2.544-0.6,3.808-0.936c-2.008,19.928-2.008,40.008,0,59.936c-1.264-0.336-2.552-0.584-3.808-0.936
	l-32.752-9.096c-0.642-13.387-0.319-26.803,0.968-40.144V255.781z M193.178,242.181c12.815-2.514,25.791-4.126,38.832-4.824v77.304
	c-13.042-0.721-26.017-2.352-38.832-4.88c-2.696-22.437-2.696-45.115,0-67.552V242.181z M202.458,193.821
	c9.792-1.488,19.657-2.454,29.552-2.896v30.4c-12.17,0.647-24.289,2.042-36.288,4.176c0.632-3.424,1.232-6.856,1.984-10.256
	L202.458,193.821z M282.314,215.213c0.576,2.6,1.016,5.232,1.52,7.848c-11.888-1.431-23.851-2.144-35.824-2.136v-30.352
	c9.744,0.029,19.48,0.563,29.168,1.6L282.314,215.213z M248.01,315.101v-78.192c12.87,0.009,25.723,0.896,38.472,2.656
	c3.144,24.192,3.144,48.688,0,72.88C273.734,314.213,260.879,315.1,248.01,315.101z M312.01,227.805
	c-3.768-0.84-7.568-1.472-11.368-2.16c-0.8-4.64-1.648-9.264-2.672-13.848l-3.824-17.2c6.68,1.16,13.336,2.512,19.936,4.16
	l14.4,3.608c3.002,10.099,5.437,20.358,7.296,30.728L312.01,227.805z M273.61,175.805c-8.533-0.784-17.067-1.197-25.6-1.24v-42.152
	c5.462,0.292,10.903,0.896,16.296,1.808L273.61,175.805z M232.01,132.413v42.488c-8.648,0.416-17.272,1.176-25.856,2.344l9.6-43.024
	C221.134,133.31,226.561,132.707,232.01,132.413z M167.138,201.781c6.027-1.776,12.096-3.339,18.208-4.688l-3.264,14.704
	c-1.272,5.704-2.328,11.456-3.248,17.24c-3.432,0.8-6.88,1.6-10.288,2.512l-25.304,7.032c1.746-10.75,4.119-21.39,7.104-31.864
	L167.138,201.781z M98.338,300.981l26.76,7.424c0.861,10.306,2.263,20.561,4.2,30.72l-21.6-6.344
	c-4.351-10.208-7.497-20.888-9.376-31.824L98.338,300.981z M141.538,312.981l27.032,7.512c3.4,0.944,6.856,1.656,10.28,2.48
	c0.92,5.792,1.984,11.56,3.256,17.272l3.264,14.712c-6.112-1.36-12.181-2.925-18.208-4.696l-20.264-5.952
	c-2.388-10.343-4.186-20.813-5.384-31.36L141.538,312.981z M314.074,353.285c-6.6,1.648-13.256,3.008-19.936,4.168l3.824-17.208
	c1.016-4.568,1.872-9.184,2.664-13.808c3.8-0.688,7.608-1.36,11.376-2.2l25.864-5.744c-1.348,10.188-3.257,20.294-5.72,30.272
	L314.074,353.285z M352.698,236.877c-1.611-10.115-3.747-20.139-6.4-30.032l19.8,4.952c0.88,0.191,1.786,0.231,2.68,0.12
	c4.944,9.876,8.724,20.292,11.264,31.04L352.698,236.877z M229.778,68.005h20.464l2.664,8h-25.792L229.778,68.005z M224.01,116.005
	v-24h32v24H224.01z M145.506,167.621l-8.208,26.256l-19.056,5.6C125.738,187.593,134.922,176.863,145.506,167.621L145.506,167.621z
	 M118.242,352.525l15.144,4.456c0.144,0.544,0.232,1.088,0.376,1.6l5.312,19.928C131.153,370.678,124.163,361.959,118.242,352.525z
	 M340.946,378.541l4.44-16.64l12.208-3.048C352.64,365.897,347.068,372.485,340.946,378.541z"/>
<path d="M474.978,76.573l-31.104-12.432l-12.432-31.104c-1.635-4.105-6.288-6.106-10.393-4.471c-2.041,0.813-3.658,2.43-4.471,4.471
	l-12.432,31.104l-31.104,12.432c-4.105,1.635-6.106,6.288-4.471,10.393c0.813,2.041,2.43,3.658,4.471,4.471l31.104,12.432
	l12.432,31.104c1.635,4.105,6.288,6.106,10.393,4.471c2.041-0.813,3.658-2.43,4.471-4.471l12.432-31.104l31.104-12.432
	c4.105-1.635,6.106-6.288,4.471-10.393C478.636,79.003,477.019,77.386,474.978,76.573z M434.754,90.285
	c-2.034,0.818-3.646,2.43-4.464,4.464l-6.28,15.712l-6.28-15.712c-0.818-2.034-2.43-3.646-4.464-4.464l-15.712-6.28l15.712-6.28
	c2.034-0.818,3.646-2.43,4.464-4.464l6.28-15.712l6.28,15.712c0.818,2.034,2.43,3.646,4.464,4.464l15.712,6.28L434.754,90.285z"/>
<path d="M48.578,470.973c1.635,4.105,6.288,6.106,10.393,4.471c2.041-0.813,3.658-2.43,4.471-4.471l12.432-31.104l31.104-12.432
	c4.105-1.635,6.106-6.288,4.471-10.393c-0.813-2.041-2.43-3.658-4.471-4.471l-31.104-12.432l-12.432-31.104
	c-1.635-4.105-6.288-6.106-10.393-4.471c-2.041,0.813-3.658,2.43-4.471,4.471l-12.432,31.104L5.042,412.573
	c-4.105,1.635-6.106,6.288-4.471,10.393c0.813,2.041,2.43,3.658,4.471,4.471l31.104,12.432L48.578,470.973z M45.266,413.725
	c2.034-0.818,3.646-2.43,4.464-4.464l6.28-15.712l6.28,15.712c0.818,2.034,2.43,3.646,4.464,4.464l15.712,6.28l-15.712,6.28
	c-2.034,0.818-3.646,2.43-4.464,4.464l-6.28,15.712l-6.28-15.712c-0.818-2.034-2.43-3.646-4.464-4.464l-15.712-6.28L45.266,413.725z
	"/>
<path d="M64.01,60.005h16v16h-16V60.005z"/>
<path d="M64.01,92.005h16v16h-16V92.005z"/>
<path d="M80.01,76.005h16v16h-16V76.005z"/>
<path d="M48.01,76.005h16v16h-16V76.005z"/>
<path d="M400.01,396.005h16v16h-16V396.005z"/>
<path d="M400.01,428.005h16v16h-16V428.005z"/>
<path d="M416.01,412.005h16v16h-16V412.005z"/>
<path d="M384.01,412.005h16v16h-16V412.005z"/>
<g>
</g>
<g>
</g>
<g>
</g>
<g>
</g>
<g>
</g>
<g>
</g>
<g>
</g>
<g>
</g>
<g>
</g>
<g>
</g>
<g>
</g>
<g>
</g>
<g>
</g>
<g>
</g>
<g>
</g>
</svg>
