<svg height="480pt" viewBox="0 -100 480.161 480" width="480pt" xmlns="http://www.w3.org/2000/svg"><path d="m472.160156 280.082031h-23.765625c-7.753906-.003906-15.027343-3.75-19.53125-10.058593l-72.824219-101.941407h-19.878906c-4.417968 0-8-3.582031-8-8s3.582032-8 8-8h24c2.582032 0 5.003906 1.25 6.503906 3.351563l75.199219 105.292968c1.503907 2.105469 3.929688 3.355469 6.515625 3.355469h23.78125c4.417969 0 8 3.582031 8 8s-3.582031 8-8 8zm0 0" fill="#cc7400"/><path d="m376.160156 80.082031c0-44.160156-17.917968-79.9999998-40-79.9999998h-72c15.839844 0 29.519532 18.4765628 36 45.1992188 5.335938 22.894531 5.335938 46.707031 0 69.597656-6.480468 26.722656-20.160156 45.203125-36 45.203125h72c22.082032 0 40-35.839843 40-80zm0 0" fill="#ffa733"/><path d="m300.160156 114.878906c5.335938-22.890625 5.335938-46.703125 0-69.597656-6.480468-26.722656-20.160156-45.1992188-36-45.1992188h-72c15.839844 0 29.519532 18.4765628 36 45.1992188 5.335938 22.894531 5.335938 46.707031 0 69.597656-6.480468 26.722656-20.160156 45.203125-36 45.203125h72c15.839844 0 29.519532-18.480469 36-45.203125zm0 0" fill="#ff6243"/><path d="m228.160156 114.878906c5.335938-22.890625 5.335938-46.703125 0-69.597656-6.480468-26.722656-20.160156-45.1992188-36-45.1992188h-72c15.839844 0 29.519532 18.4765628 36 45.1992188 5.335938 22.894531 5.335938 46.707031 0 69.597656-6.480468 26.722656-20.160156 45.203125-36 45.203125h72c15.839844 0 29.519532-18.480469 36-45.203125zm0 0" fill="#ffa733"/><path d="m304.160156 160.082031h32v120h-32zm0 0" fill="#00ccb3"/><path d="m128.160156 160.082031v120h32v-120zm0 0" fill="#00ccb3"/><path d="m128.160156 160.082031h32v16h-32zm0 0" fill="#00b39d"/><path d="m304.160156 160.082031h32v16h-32zm0 0" fill="#00b39d"/><path d="m142.441406 153.402344c-3.6875-2.4375-8.65625-1.421875-11.089844 2.269531l-13.453124 20.410156h-32.136719l18.152343-25.699219c2.550782-3.605468 1.699219-8.601562-1.910156-11.15625-3.605468-2.550781-8.601562-1.699218-11.15625 1.910157l-89.214844 126.328125c-1.769531 2.328125-2.128906 5.4375-.9375 8.105468 1.191407 2.671876 3.75 4.476563 6.664063 4.710938s5.726563-1.140625 7.328125-3.585938l14.5625-20.613281h35.878906l-7.648437 11.589844c-2.339844 3.6875-1.292969 8.570313 2.351562 10.972656 3.648438 2.398438 8.546875 1.433594 11.007813-2.171875l73.875-112c2.421875-3.6875 1.40625-8.640625-2.273438-11.070312zm-35.082031 38.679687-10.550781 16h-33.597656l11.292968-16zm-66.804687 48 11.292968-16h34.402344l-10.570312 16zm0 0" fill="#ff5023"/><path d="m156.160156 114.878906c5.335938-22.890625 5.335938-46.703125 0-69.597656-6.480468-26.722656-20.160156-45.1992188-36-45.1992188-22.078125 0-40 35.8398438-40 79.9999998 0 44.160157 17.921875 80 40 80 15.839844 0 29.519532-18.480469 36-45.203125zm0 0" fill="#cc7400"/></svg>