<svg id="Capa_1" enable-background="new 0 0 512 512" height="512" viewBox="0 0 512 512" width="512" xmlns="http://www.w3.org/2000/svg"><g><g><path d="m423.827 72.746c-26.35-24.145-57.921-42.678-92.827-53.716h-150c-34.906 11.038-66.478 29.571-92.828 53.716l-74.859 129.66c-3.795 17.263-5.813 35.191-5.813 53.594s2.018 36.331 5.813 53.594l74.859 129.66c26.35 24.145 57.922 42.678 92.828 53.716h150c34.906-11.038 66.478-29.571 92.828-53.716l74.859-129.66c3.795-17.263 5.813-35.191 5.813-53.594s-2.018-36.331-5.813-53.594z" fill="#efedee"/></g><g><path d="m88.154 72.778-74.859 129.66c-3.791 17.251-5.795 35.172-5.795 53.562 0 18.403 2.018 36.331 5.813 53.594l74.859 129.66c26.35 24.145 57.922 42.678 92.828 53.716h150v.006c34.913-11.042 66.488-29.588 92.84-53.744l22.911-39.683c-33.873 17.308-72.234 27.084-112.884 27.084-137.243 0-248.5-111.257-248.5-248.5 0-48.684 14.012-94.089 38.205-132.427-12.619 7.963-24.467 17.036-35.418 27.072z" fill="#d4d4d5"/></g><g><path d="m191 206.925 55-31.754c6.188-3.573 13.812-3.573 20 0l55 31.754c6.188 3.573 10 10.175 10 17.321v63.509c0 7.145-3.812 13.748-10 17.32l-55 31.754c-6.188 3.573-13.812 3.573-20 0l-55-31.754c-6.188-3.573-10-10.175-10-17.32v-63.509c0-7.146 3.812-13.748 10-17.321z" fill="#676f72"/></g><g><path d="m256 7.5c-26.141 0-51.334 4.047-75 11.53v20.224c0 7.145 3.812 13.748 10 17.32l55 31.754c6.188 3.573 13.812 3.573 20 0l55-31.754c6.188-3.573 10-10.175 10-17.32v-20.224c-23.666-7.483-48.859-11.53-75-11.53z" fill="#676f72"/></g><g><path d="m321 455.425-55-31.754c-6.188-3.573-13.812-3.573-20 0l-55 31.754c-6.188 3.573-10 10.175-10 17.32v20.224c23.666 7.483 48.859 11.53 75 11.53s51.334-4.047 75-11.53v-20.224c0-7.145-3.812-13.747-10-17.32z" fill="#4c5659"/></g><g><path d="m13.298 202.478 17.495 10.101c6.188 3.573 13.812 3.573 20 0l55-31.754c6.188-3.573 10-10.175 10-17.32v-63.509c0-7.145-3.812-13.748-10-17.32l-17.458-10.08c-37.105 33.939-63.865 78.989-75.037 129.882z" fill="#676f72"/></g><g><path d="m481.207 299.421c-6.188-3.573-13.812-3.573-20 0l-55 31.754c-6.188 3.573-10 10.175-10 17.32v63.509c0 7.145 3.812 13.748 10 17.32l17.458 10.08c37.104-33.939 63.864-78.989 75.037-129.883z" fill="#676f72"/></g><g><path d="m105.793 331.175-55-31.754c-6.188-3.573-13.812-3.573-20 0l-17.495 10.101c11.173 50.893 37.932 95.943 75.037 129.883l17.458-10.08c6.188-3.573 10-10.175 10-17.32v-63.509c0-7.146-3.812-13.748-10-17.321z" fill="#4c5659"/></g><g><path d="m423.666 72.596-17.458 10.08c-6.188 3.573-10 10.175-10 17.32v63.509c0 7.145 3.812 13.748 10 17.32l55 31.754c6.188 3.573 13.812 3.573 20 0l17.495-10.101c-11.173-50.893-37.933-95.943-75.037-129.882z" fill="#676f72"/></g><g><path d="m397.277 418.456c1.54 4.517 4.673 8.41 8.931 10.869l17.458 10.08c16.374-14.978 30.73-32.122 42.625-50.974-21.078 13.3-44.292 23.519-69.014 30.025z" fill="#4c5659"/></g><g><path d="m85.367 178.133c0-34.078 6.866-66.551 19.28-96.119l-16.313-9.418c-37.104 33.939-63.864 78.989-75.036 129.882l17.495 10.101c6.188 3.573 13.812 3.573 20 0l34.99-20.202c-.267-4.715-.416-9.462-.416-14.244z" fill="#4c5659"/></g><path d="m485.069 141.584c-1.854-3.704-6.361-5.204-10.063-3.351-3.704 1.854-5.204 6.359-3.351 10.063 8.125 16.236 14.296 33.092 18.524 50.442l-12.722 7.345c-3.855 2.226-8.645 2.226-12.5 0l-55-31.754c-3.855-2.226-6.25-6.374-6.25-10.825v-63.508c0-4.452 2.395-8.6 6.25-10.825l12.677-7.318c12.824 12.286 24.403 26.086 34.452 41.262 2.287 3.453 6.942 4.399 10.394 2.112 3.454-2.287 4.399-6.941 2.112-10.395-47.615-71.904-127.463-114.832-213.592-114.832-68.38 0-132.667 26.629-181.02 74.98-48.351 48.353-74.98 112.64-74.98 181.02s26.629 132.667 74.98 181.02c48.353 48.351 112.64 74.98 181.02 74.98s132.668-26.629 181.02-74.98c48.351-48.353 74.98-112.64 74.98-181.02 0-40.211-9.061-78.707-26.931-114.416zm8.353 72.603c2.381 13.675 3.578 27.63 3.578 41.813 0 14.247-1.251 28.206-3.634 41.781l-8.409-4.855c-1.987-1.147-4.09-2.015-6.25-2.625v-68.602c2.16-.61 4.263-1.477 6.25-2.625zm-35.964 4.888c1.987 1.147 4.089 2.014 6.249 2.624v68.602c-2.16.61-4.263 1.478-6.25 2.625l-55 31.754c-1.987 1.147-3.79 2.534-5.398 4.1l-59.411-34.301c.552-2.176.852-4.43.852-6.725v-63.509c0-2.295-.3-4.55-.852-6.725l59.411-34.301c1.608 1.566 3.411 2.953 5.398 4.1zm-442.458 36.925c0-14.247 1.251-28.206 3.634-41.781l8.409 4.855c1.987 1.147 4.089 2.015 6.249 2.625v68.603c-2.16.61-4.262 1.477-6.25 2.624l-8.409 4.855c-2.382-13.575-3.633-27.534-3.633-41.781zm33.292-34.301c2.16-.61 4.263-1.477 6.25-2.625l55-31.754c1.987-1.147 3.79-2.534 5.398-4.1l59.411 34.301c-.552 2.176-.852 4.43-.852 6.725v16.754c0 4.142 3.358 7.5 7.5 7.5s7.5-3.358 7.5-7.5v-16.754c0-4.451 2.395-8.599 6.25-10.825l55-31.754c3.855-2.226 8.645-2.226 12.5 0l55 31.754c3.855 2.226 6.25 6.374 6.25 10.825v63.509c0 4.452-2.395 8.6-6.25 10.825l-55 31.754c-3.855 2.226-8.646 2.226-12.5 0l-55-31.754c-3.855-2.226-6.25-6.374-6.25-10.825v-16.755c0-4.142-3.358-7.5-7.5-7.5s-7.5 3.358-7.5 7.5v16.755c0 2.295.3 4.549.852 6.725l-59.411 34.301c-1.608-1.566-3.411-2.953-5.398-4.1l-55-31.754c-1.987-1.147-4.09-2.015-6.25-2.625zm276.458-158.629c1.987-1.147 3.79-2.534 5.398-4.1l59.411 34.301c-.552 2.176-.852 4.431-.852 6.725v63.509c0 2.295.3 4.55.852 6.725l-59.411 34.301c-1.608-1.566-3.411-2.953-5.398-4.1l-55-31.754c-1.987-1.147-4.09-2.015-6.25-2.625v-68.603c2.16-.61 4.263-1.477 6.25-2.625zm-76.25 102.981c-2.16.61-4.263 1.477-6.25 2.625l-55 31.754c-1.987 1.147-3.79 2.534-5.398 4.1l-59.411-34.301c.552-2.176.852-4.431.852-6.725v-63.508c0-2.295-.3-4.55-.852-6.725l59.411-34.301c1.608 1.566 3.411 2.953 5.398 4.1l55 31.754c1.987 1.147 4.09 2.015 6.25 2.625zm-74.148-120.072-59.411 34.301c-1.608-1.566-3.411-2.953-5.398-4.1l-8.285-4.783c21.278-17.865 45.669-32.137 72.242-41.848v9.705c0 2.295.3 4.55.852 6.725zm-64.809 389.841c1.987-1.147 3.79-2.534 5.398-4.1l59.411 34.301c-.552 2.176-.852 4.43-.852 6.725v9.705c-26.573-9.711-50.963-23.982-72.242-41.848zm77.707 13.11c-1.987 1.147-3.79 2.534-5.399 4.1l-59.411-34.301c.552-2.176.852-4.431.852-6.725v-63.509c0-2.295-.3-4.55-.852-6.725l59.411-34.301c1.608 1.566 3.411 2.953 5.398 4.1l55 31.754c1.987 1.148 4.09 2.015 6.25 2.625v68.602c-2.16.61-4.263 1.478-6.25 2.625zm76.25-102.981c2.16-.61 4.263-1.477 6.25-2.625l55-31.754c1.987-1.147 3.79-2.534 5.398-4.1l59.411 34.301c-.552 2.176-.852 4.431-.852 6.725v63.509c0 2.295.3 4.549.852 6.725l-59.411 34.301c-1.608-1.566-3.411-2.953-5.398-4.1l-55-31.754c-1.987-1.147-4.09-2.015-6.25-2.625zm74.148 120.071 59.411-34.301c1.608 1.566 3.411 2.953 5.398 4.1l8.285 4.783c-21.278 17.865-45.669 32.136-72.242 41.848v-9.705c0-2.294-.3-4.549-.852-6.725zm64.809-389.84c-1.987 1.147-3.79 2.534-5.398 4.1l-59.411-34.301c.552-2.176.852-4.43.852-6.725v-9.746c26.346 9.583 50.843 23.716 72.386 41.805zm-78.957-51.577v14.652c0 4.452-2.395 8.6-6.25 10.825l-55 31.754c-3.855 2.226-8.645 2.226-12.5 0l-55-31.754c-3.855-2.226-6.25-6.374-6.25-10.825v-14.62c21.428-6.262 44.076-9.635 67.5-9.635 23.174 0 45.862 3.307 67.5 9.603zm-234.003 57.324 12.546 7.244c3.855 2.225 6.25 6.373 6.25 10.825v63.509c0 4.451-2.395 8.599-6.25 10.825l-55 31.754c-3.855 2.227-8.645 2.226-12.5 0l-12.66-7.309c11.072-45.289 34.964-85.604 67.614-116.848zm-67.614 231.298 12.66-7.309c3.855-2.226 8.645-2.226 12.5 0l55 31.754c3.855 2.226 6.25 6.374 6.25 10.825v63.509c0 4.451-2.395 8.599-6.25 10.825l-12.546 7.243c-32.65-31.243-56.542-71.558-67.614-116.847zm166.617 174.14v-14.62c0-4.452 2.395-8.6 6.25-10.825l55-31.754c3.855-2.226 8.645-2.226 12.5 0l55.001 31.755c3.854 2.225 6.249 6.373 6.249 10.825v14.62c-21.428 6.261-44.076 9.634-67.5 9.634s-46.072-3.373-67.5-9.635zm234.003-57.292-12.546-7.243c-3.855-2.226-6.25-6.374-6.25-10.825v-63.509c0-4.452 2.395-8.6 6.25-10.825l55-31.754c3.855-2.226 8.646-2.226 12.5 0l12.66 7.309c-11.072 45.288-34.964 85.603-67.614 116.847z"/></g></svg>