<?xml version="1.0" encoding="iso-8859-1"?>
<!-- Generator: Adobe Illustrator 19.0.0, SVG Export Plug-In . SVG Version: 6.00 Build 0)  -->
<svg version="1.1" id="Layer_1" xmlns="http://www.w3.org/2000/svg" xmlns:xlink="http://www.w3.org/1999/xlink" x="0px" y="0px"
	 viewBox="0 0 512 512" style="enable-background:new 0 0 512 512;" xml:space="preserve">
<path style="fill:#1BA8C9;" d="M504.396,382.663c-31.052,0-31.052,24.333-62.103,24.333s-31.052-24.333-62.103-24.333
	c-31.051,0-31.051,24.333-62.1,24.333s-31.05-24.333-62.098-24.333c-31.047,0-31.047,24.333-62.095,24.333
	c-31.048,0-31.048-24.333-62.098-24.333s-31.05,24.333-62.099,24.333c-31.047,0-31.047-24.333-62.096-24.333v-56.861
	c31.047,0,31.047,24.333,62.096,24.333c31.049,0,31.049-24.333,62.099-24.333c31.048,0,31.048,24.333,62.098,24.333
	c31.047,0,31.047-24.333,62.095-24.333c31.05,0,31.05,24.333,62.098,24.333c31.051,0,31.051-24.333,62.1-24.333
	c31.052,0,31.052,24.333,62.103,24.333s31.052-24.333,62.103-24.333"/>
<g>
	<path style="fill:#FCE45B;" d="M118.696,416.087v-67.406V137.098c0-32.281,26.269-58.54,58.55-58.54s58.54,26.259,58.54,58.54
		v2.281c0,8.405,6.813,15.208,15.208,15.208c8.405,0,15.208-6.803,15.208-15.208v-2.281c0-49.051-39.906-88.956-88.956-88.956
		c-49.061,0-88.966,39.906-88.966,88.956v209.231v67.406"/>
	<path style="fill:#FCE45B;" d="M330.076,416.087v-67.406V137.098c0-32.281,26.269-58.54,58.551-58.54s58.54,26.259,58.54,58.54
		v2.281c0,8.405,6.813,15.208,15.208,15.208c8.405,0,15.208-6.803,15.208-15.208v-2.281c0-49.051-39.906-88.956-88.956-88.956
		c-49.061,0-88.966,39.906-88.966,88.956v209.231v67.406"/>
	<rect x="118.693" y="218.457" style="fill:#FCE45B;" width="180.964" height="31.935"/>
	<rect x="118.693" y="308.183" style="fill:#FCE45B;" width="180.964" height="31.935"/>
</g>
<g>
	<rect x="261.647" y="218.457" style="fill:#E5CB4C;" width="38.017" height="31.935"/>
	<rect x="261.647" y="308.183" style="fill:#E5CB4C;" width="38.017" height="31.935"/>
</g>
<path style="fill:#53C5F2;" d="M504.396,439.525c-31.052,0-31.052,24.333-62.103,24.333s-31.052-24.333-62.103-24.333
	c-31.051,0-31.051,24.333-62.1,24.333s-31.05-24.333-62.098-24.333c-31.047,0-31.047,24.333-62.095,24.333
	c-31.048,0-31.048-24.333-62.098-24.333s-31.05,24.333-62.099,24.333c-31.047,0-31.047-24.333-62.096-24.333v-56.861
	c31.047,0,31.047,24.333,62.096,24.333c31.049,0,31.049-24.333,62.099-24.333c31.048,0,31.048,24.333,62.098,24.333
	c31.047,0,31.047-24.333,62.095-24.333c31.05,0,31.05,24.333,62.098,24.333c31.051,0,31.051-24.333,62.1-24.333
	c31.052,0,31.052,24.333,62.103,24.333s31.052-24.333,62.103-24.333"/>
<path d="M442.293,342.53c-12.901,0-18.842-4.655-26.361-10.547c-8.246-6.461-17.592-13.785-35.742-13.785
	c-10.438,0-19.133,2.438-27.363,7.675c-3.543,2.254-4.589,6.954-2.335,10.498c2.254,3.543,6.952,4.588,10.498,2.334
	c4.119-2.62,9.621-5.298,19.2-5.298c12.901,0,18.842,4.655,26.361,10.547c8.246,6.461,17.592,13.785,35.742,13.785
	c18.15,0,27.496-7.323,35.742-13.785c7.52-5.893,13.46-10.547,26.361-10.547c4.2,0,7.604-3.405,7.604-7.604
	c0-4.199-3.404-7.604-7.604-7.604c-18.15,0-27.496,7.323-35.742,13.785C461.135,337.875,455.194,342.53,442.293,342.53z"/>
<path d="M7.604,333.405c12.899,0,18.838,4.655,26.356,10.547c4.15,3.251,8.439,6.613,14.069,9.261
	c1.045,0.492,2.146,0.725,3.231,0.725c2.854,0,5.591-1.616,6.886-4.37c1.787-3.801,0.154-8.33-3.646-10.117
	c-4.074-1.915-7.516-4.613-11.16-7.468c-8.245-6.462-17.589-13.785-35.738-13.785c-4.2,0-7.604,3.405-7.604,7.604
	C0,330.001,3.404,333.405,7.604,333.405z"/>
<path d="M88.28,385.383c4.2,0,7.604-3.405,7.604-7.604V137.098c0-44.857,36.499-81.352,81.362-81.352
	c44.857,0,81.351,36.495,81.351,81.352v2.281c0,4.192-3.411,7.604-7.604,7.604c-4.193,0-7.604-3.412-7.604-7.604v-2.281
	c0-36.472-29.673-66.144-66.143-66.144c-36.478,0-66.154,29.673-66.154,66.144v221.985c0,4.199,3.404,7.604,7.604,7.604
	c4.2,0,7.604-3.405,7.604-7.604v-11.361h165.755v30.128c0,4.199,3.404,7.604,7.604,7.604c4.2,0,7.604-3.405,7.604-7.604V137.098
	c0-44.857,36.499-81.352,81.362-81.352c44.857,0,81.352,36.495,81.352,81.352v2.281c0,4.192-3.411,7.604-7.604,7.604
	c-4.193,0-7.604-3.412-7.604-7.604v-2.281c0-36.472-29.673-66.144-66.144-66.144c-36.478,0-66.154,29.673-66.154,66.144v27.744
	c0,4.199,3.404,7.604,7.604,7.604s7.604-3.405,7.604-7.604v-27.744c0-28.086,22.854-50.936,50.947-50.936
	c28.086,0,50.936,22.85,50.936,50.936v2.281c0,12.578,10.234,22.812,22.812,22.812s22.812-10.234,22.812-22.812v-2.281
	c0-53.243-43.317-96.56-96.56-96.56c-53.249,0-96.57,43.317-96.57,96.56v73.758H126.3v-73.758c0-28.086,22.854-50.936,50.947-50.936
	c28.086,0,50.935,22.85,50.935,50.936v2.281c0,12.578,10.234,22.812,22.812,22.812s22.812-10.234,22.812-22.812v-2.281
	c0-53.244-43.317-96.56-96.559-96.56c-53.249,0-96.57,43.316-96.57,96.56v240.681C80.676,381.978,84.081,385.383,88.28,385.383z
	 M126.301,226.065h165.754v16.728H126.301V226.065z M292.056,257.999v42.579H186.622c-4.2,0-7.604,3.405-7.604,7.604
	s3.404,7.604,7.604,7.604h105.432v16.728H126.301v-16.728h34.975c4.2,0,7.604-3.405,7.604-7.604s-3.404-7.604-7.604-7.604H126.3
	v-42.579H292.056L292.056,257.999z"/>
<path d="M330.076,182.585c-4.2,0-7.604,3.405-7.604,7.604v190.013c0,4.199,3.404,7.604,7.604,7.604s7.604-3.405,7.604-7.604V190.189
	C337.68,185.99,334.275,182.585,330.076,182.585z"/>
<path d="M504.396,375.059c-18.15,0-27.496,7.323-35.742,13.785c-7.52,5.893-13.46,10.547-26.361,10.547s-18.842-4.655-26.361-10.547
	c-8.246-6.461-17.592-13.785-35.742-13.785c-18.149,0-27.495,7.324-35.741,13.785c-7.52,5.893-13.459,10.547-26.359,10.547
	c-12.9,0-18.84-4.655-26.359-10.547c-8.245-6.461-17.591-13.785-35.74-13.785c-18.148,0-27.493,7.324-35.738,13.785
	c-7.52,5.893-13.458,10.547-26.357,10.547c-12.9,0-18.839-4.655-26.358-10.547c-8.245-6.461-17.59-13.785-35.74-13.785
	s-27.495,7.324-35.74,13.785c-7.52,5.893-13.458,10.547-26.358,10.547s-18.839-4.655-26.358-10.547
	c-8.245-6.461-17.589-13.785-35.738-13.785c-4.2,0-7.604,3.405-7.604,7.604c0,4.199,3.404,7.604,7.604,7.604
	c12.899,0,18.838,4.655,26.357,10.547c8.245,6.461,17.589,13.785,35.739,13.785c18.148,0,27.494-7.323,35.739-13.785
	c7.52-5.893,13.459-10.547,26.359-10.547s18.84,4.655,26.359,10.547c8.245,6.461,17.59,13.785,35.739,13.785
	s27.493-7.324,35.738-13.785c7.52-5.893,13.458-10.547,26.357-10.547c12.9,0,18.84,4.655,26.359,10.547
	c8.245,6.461,17.591,13.785,35.74,13.785c18.149,0,27.494-7.323,35.74-13.785c7.52-5.893,13.459-10.547,26.36-10.547
	c12.901,0,18.842,4.655,26.361,10.547c8.246,6.461,17.592,13.785,35.742,13.785c18.15,0,27.496-7.323,35.742-13.785
	c7.52-5.893,13.46-10.547,26.361-10.547c4.2,0,7.604-3.405,7.604-7.604S508.596,375.059,504.396,375.059z"/>
<path d="M504.396,431.921c-18.15,0-27.496,7.323-35.742,13.785c-7.52,5.893-13.46,10.547-26.361,10.547s-18.842-4.655-26.361-10.547
	c-8.246-6.461-17.592-13.785-35.742-13.785c-18.149,0-27.495,7.324-35.741,13.785c-7.52,5.893-13.459,10.547-26.359,10.547
	c-12.9,0-18.84-4.655-26.359-10.547c-8.245-6.461-17.591-13.785-35.74-13.785c-18.148,0-27.493,7.324-35.738,13.785
	c-7.52,5.893-13.458,10.547-26.357,10.547c-12.9,0-18.839-4.655-26.358-10.547c-8.245-6.461-17.59-13.785-35.74-13.785
	c-4.2,0-7.604,3.405-7.604,7.604c0,4.199,3.404,7.604,7.604,7.604c12.9,0,18.84,4.655,26.359,10.547
	c8.245,6.461,17.59,13.785,35.739,13.785s27.493-7.324,35.738-13.785c7.52-5.893,13.458-10.547,26.357-10.547
	c12.9,0,18.84,4.655,26.359,10.547c8.245,6.461,17.591,13.785,35.74,13.785c18.149,0,27.494-7.323,35.74-13.785
	c7.52-5.893,13.459-10.547,26.36-10.547c12.901,0,18.842,4.655,26.361,10.547c8.246,6.461,17.592,13.785,35.742,13.785
	c18.15,0,27.496-7.323,35.742-13.785c7.52-5.893,13.46-10.547,26.361-10.547c4.2,0,7.604-3.405,7.604-7.604
	C512,435.326,508.596,431.921,504.396,431.921z"/>
<path d="M96.056,445.708c-7.519,5.893-13.457,10.546-26.356,10.546c-12.9,0-18.839-4.655-26.358-10.547
	c-8.245-6.461-17.589-13.786-35.738-13.786c-4.2,0-7.604,3.405-7.604,7.604c0,4.199,3.404,7.604,7.604,7.604
	c12.899,0,18.838,4.655,26.357,10.547c8.245,6.461,17.589,13.785,35.739,13.785c18.148,0,27.493-7.323,35.738-13.784
	c3.305-2.59,3.885-7.37,1.294-10.675C104.142,443.697,99.365,443.117,96.056,445.708z"/>
<g>
</g>
<g>
</g>
<g>
</g>
<g>
</g>
<g>
</g>
<g>
</g>
<g>
</g>
<g>
</g>
<g>
</g>
<g>
</g>
<g>
</g>
<g>
</g>
<g>
</g>
<g>
</g>
<g>
</g>
</svg>
